<svg id="Layer_1" data-name="Layer 1" xmlns="http://www.w3.org/2000/svg" xmlns:xlink="http://www.w3.org/1999/xlink" width="54.45mm" height="141.11mm" viewBox="0 0 154.34 400"><defs><linearGradient id="linear-gradient" x1="26.49" y1="11.73" x2="112.7" y2="84.07" gradientUnits="userSpaceOnUse"><stop offset="0" stop-color="#b5995a"/><stop offset="0.54" stop-color="#fff7b2"/><stop offset="1" stop-color="#b5995a"/></linearGradient><linearGradient id="linear-gradient-2" x1="86.45" y1="36.63" x2="103.92" y2="51.29" xlink:href="#linear-gradient"/><linearGradient id="linear-gradient-3" x1="26.7" y1="47.69" x2="39.58" y2="58.5" xlink:href="#linear-gradient"/><linearGradient id="linear-gradient-4" x1="82.89" y1="53.54" x2="101.51" y2="69.16" xlink:href="#linear-gradient"/><linearGradient id="linear-gradient-5" x1="28.37" y1="62.58" x2="40.69" y2="72.92" xlink:href="#linear-gradient"/><linearGradient id="linear-gradient-6" x1="53.47" y1="74.5" x2="85.75" y2="101.58" xlink:href="#linear-gradient"/><linearGradient id="linear-gradient-7" x1="91.19" y1="74.81" x2="120.65" y2="99.53" xlink:href="#linear-gradient"/><linearGradient id="linear-gradient-8" x1="14.08" y1="75.36" x2="45.96" y2="102.11" xlink:href="#linear-gradient"/><linearGradient id="linear-gradient-9" x1="32.9" y1="118.5" x2="123.5" y2="194.52" xlink:href="#linear-gradient"/><linearGradient id="linear-gradient-10" x1="39.39" y1="201.98" x2="84.46" y2="239.8" xlink:href="#linear-gradient"/><linearGradient id="linear-gradient-11" x1="40.66" y1="233.41" x2="77.57" y2="264.38" xlink:href="#linear-gradient"/><linearGradient id="linear-gradient-12" x1="28.06" y1="260.23" x2="158.48" y2="369.67" xlink:href="#linear-gradient"/><linearGradient id="linear-gradient-13" x1="17.08" y1="325.62" x2="74.78" y2="374.04" xlink:href="#linear-gradient"/><linearGradient id="linear-gradient-14" x1="57.07" y1="308.14" x2="67.52" y2="316.91" xlink:href="#linear-gradient"/><linearGradient id="linear-gradient-15" x1="11.38" y1="311.49" x2="33.36" y2="329.93" xlink:href="#linear-gradient"/><linearGradient id="linear-gradient-16" x1="55.86" y1="355.2" x2="95.05" y2="388.08" xlink:href="#linear-gradient"/><linearGradient id="linear-gradient-17" x1="18.15" y1="366.7" x2="27.07" y2="374.18" xlink:href="#linear-gradient"/></defs><title>japantecken</title><g opacity="0.75"><path d="M57.28,37c11.28,4.19-5.59,36.54,12.66,33.76C82.13,68.88,66.19,38.88,78.38,37c28.48-4.06,58.72,3.84,38,25.32,16.29,0.82,24.25-6.7,25.32-21.1-6-26.39-48.35-16.36-71.74-25.32,14.77,0.7,27-1.12,33.76-8.44C99.77-6.22,85.49,3.07,74.16,3.24c-14.66.22-44-3.82-46.42,8.44,3.82,8.84,23.82,1.5,25.32,12.66-34.37-10.79-75.93,38.34-38,46.42C8.83,52,29.61,34.75,57.28,37Z" fill-rule="evenodd" fill="url(#linear-gradient)"/><path d="M82.6,41.22c-6.05,13.17,31.37,13.17,25.32,0C92.16,41.6,95.89,46,82.6,41.22Z" fill-rule="evenodd" fill="url(#linear-gradient-2)"/><path d="M23.52,58.1C34,58.72,44,58.89,44.62,49.66,36.65,51.53,19.19,43.92,23.52,58.1Z" fill-rule="evenodd" fill="url(#linear-gradient-3)"/><path d="M103.7,66.54c4-15.29-18.22-4.29-21.1-12.66C77.26,70.48,92.56,66.43,103.7,66.54Z" fill-rule="evenodd" fill="url(#linear-gradient-4)"/><path d="M37.52,65.32c-46,9.3,34,.49,0,0h0Z" fill-rule="evenodd" fill="url(#linear-gradient-5)"/><path d="M53.06,75c-2,16.11,1.2,26.94,8.44,33.76,13.27,2,16.5-6,25.32-8.44-0.38-15.77-4.73-12,0-25.32C73.77,80.2,63.58,88.42,53.06,75ZM61.5,100.3c0.8-3.42,4.23-4.21,4.22-8.44h8.44C76.13,100.87,68.13,99.9,61.5,100.3Z" fill-rule="evenodd" fill="url(#linear-gradient-6)"/><path d="M91,75c-1.66,17.13,1.54,29.4,16.88,29.54,17.91,1.68,21.72-23.07,8.44-29.54C112.1,86.86,98.44,73.82,91,75Zm25.32,12.66c-1,7.42-7.26,9.62-16.88,8.44C95.23,83.39,108.88,88.6,116.36,87.64Z" fill-rule="evenodd" fill="url(#linear-gradient-7)"/><path d="M40.4,108.74c4.68-8,5.38-19.94,8.44-29.54a48.18,48.18,0,0,1-38,0Q7.88,111.72,40.4,108.74ZM23.52,91.86H36.18v8.44H23.52V91.86Z" fill-rule="evenodd" fill="url(#linear-gradient-8)"/><path d="M74.16,150.94c0-17.68,29.16,6.71,38-8.44-6.91-10-29-4.75-38-12.66,5-11.86,39.95,6.19,38-12.66C89,110.6,32.72,115.07,23.52,129.84c9.51,14.65,37.8-9.54,42.2,0-0.76,17.52-30.69,5.89-38,16.88,9.43,12.23,36.8-12.28,42.2,8.44-17.23,6.68-50.47-2.64-59.08,12.66,33.67,4.95,89.13-3.27,135,0C142.86,141.32,89.42,165.22,74.16,150.94Z" fill-rule="evenodd" fill="url(#linear-gradient-9)"/><path d="M95.26,226.9c-24.15-2.58-46.35-7.11-59.08-21.1C28.25,237.21,83.45,242.43,95.26,226.9Z" fill-rule="evenodd" fill="url(#linear-gradient-10)"/><path d="M32,243.78c2.81,14.06,54,20,54.86,8.44C71.78,248.84,43.64,236.51,32,243.78Z" fill-rule="evenodd" fill="url(#linear-gradient-11)"/><path d="M99.48,281.76c-29.17-8.53-59.48,7-71.74-21.1-4.86,5-4.78,14.92-4.22,25.32,14.26,14.14,39.17-3.54,59.08,8.44-5.35,52,35.35,97.47,71.74,80.18C112.2,367.51,93.17,337.3,99.48,281.76Z" fill-rule="evenodd" fill="url(#linear-gradient-12)"/><path d="M48.84,349.28c9.47-12.61,27.8,8.1,29.54-8.44-11.22-9.48-21.49,6.31-29.54-4.22V302.86H36.18c3.55,10.52,5.52,22.61,4.22,38H10.86c-2.09,25.49,21.91-1.35,29.54,12.66,3.12,16.57-8.9,48.29,12.66,46.42C50.2,384.5,47.18,369.23,48.84,349.28Z" fill-rule="evenodd" fill="url(#linear-gradient-13)"/><path d="M61.5,302.86c-1.33,5.71-6,8.06-4.22,16.88C71.67,322.92,73.74,303.62,61.5,302.86Z" fill-rule="evenodd" fill="url(#linear-gradient-14)"/><path d="M27.74,336.62C36,327.15,30,306.29,15.08,307.08,14.13,322.1,17.93,332.37,27.74,336.62Z" fill-rule="evenodd" fill="url(#linear-gradient-15)"/><path d="M57.28,353.5c9,10.43,32.72,47.28,38,33.76C93.51,381.82,73.48,358.52,57.28,353.5Z" fill-rule="evenodd" fill="url(#linear-gradient-16)"/><path d="M15.08,387.26a84.68,84.68,0,0,0,21.1-29.54C23.86,361-2.3,380.51,15.08,387.26Z" fill-rule="evenodd" fill="url(#linear-gradient-17)"/></g></svg>