<?xml version="1.0" encoding="utf-8"?>
<!-- Generator: Adobe Illustrator 19.2.0, SVG Export Plug-In . SVG Version: 6.00 Build 0)  -->
<svg version="1.1" id="Lager_1" xmlns="http://www.w3.org/2000/svg" xmlns:xlink="http://www.w3.org/1999/xlink" x="0px" y="0px"
	 width="112.4px" height="72.3px" viewBox="0 0 112.4 72.3" style="enable-background:new 0 0 112.4 72.3;" xml:space="preserve">
<style type="text/css">
	.st0{fill:#F96332;}
</style>
<path class="st0" d="M91.9,30.4c0-0.3,0.1-0.6,0.1-0.9c0-16.3-13-29.5-29-29.5C51.3,0,41.4,6.9,36.7,16.8c-2-1-4.3-1.6-6.7-1.6
	c-7.4,0-13.6,5.5-14.8,12.7C6.3,30.9,0,39.4,0,49.4C0,62,10.1,72.3,22.5,72.3h25.7V52.2H36.1l20.1-21l20.1,21H64.2v20.1h27.7
	c11.3,0,20.5-9.4,20.5-20.9S103.2,30.4,91.9,30.4z"/>
</svg>
