<?xml version="1.0" encoding="utf-8"?>
<!-- Generator: Adobe Illustrator 19.2.0, SVG Export Plug-In . SVG Version: 6.00 Build 0)  -->
<svg version="1.1" id="Lager_1" xmlns="http://www.w3.org/2000/svg" xmlns:xlink="http://www.w3.org/1999/xlink" x="0px" y="0px"
	 width="273.3px" height="64.9px" viewBox="0 0 273.3 64.9" style="enable-background:new 0 0 273.3 64.9;" xml:space="preserve">
<style type="text/css">
	.st0{fill:#F96332;}
</style>
<path class="st0" d="M32.5,64.9C14.5,64.9,0,50.4,0,32.5C0,14.5,14.5,0,32.5,0c17.9,0,32.5,14.5,32.5,32.5
	C64.9,50.4,50.4,64.9,32.5,64.9z M54,32.3c0-11.9-9.7-21.6-21.6-21.6c-11.9,0-21.6,9.7-21.6,21.6c0,11.9,9.7,21.6,21.6,21.6
	C44.4,53.9,54,44.2,54,32.3z"/>
<circle class="st0" cx="32.5" cy="32.3" r="12.1"/>
<path class="st0" d="M101.8,64.9c-17.9,0-32.5-14.5-32.5-32.5C69.3,14.5,83.9,0,101.8,0c17.9,0,32.5,14.5,32.5,32.5
	C134.3,50.4,119.7,64.9,101.8,64.9z M123.4,32.3c0-11.9-9.7-21.6-21.6-21.6c-11.9,0-21.6,9.7-21.6,21.6c0,11.9,9.7,21.6,21.6,21.6
	C113.7,53.9,123.4,44.2,123.4,32.3z"/>
<circle class="st0" cx="101.8" cy="32.3" r="12.1"/>
<path class="st0" d="M171.1,64.9c-17.9,0-32.5-14.5-32.5-32.5c0-17.9,14.5-32.5,32.5-32.5c17.9,0,32.5,14.5,32.5,32.5
	C203.6,50.4,189.1,64.9,171.1,64.9z M192.7,32.3c0-11.9-9.7-21.6-21.6-21.6c-11.9,0-21.6,9.7-21.6,21.6c0,11.9,9.7,21.6,21.6,21.6
	C183,53.9,192.7,44.2,192.7,32.3z"/>
<circle class="st0" cx="171.1" cy="32.3" r="12.1"/>
<path class="st0" d="M240.8,64.9c-17.9,0-32.5-14.5-32.5-32.5c0-17.9,14.5-32.5,32.5-32.5c17.9,0,32.5,14.5,32.5,32.5
	C273.3,50.4,258.7,64.9,240.8,64.9z M262.3,32.3c0-11.9-9.7-21.6-21.6-21.6c-11.9,0-21.6,9.7-21.6,21.6c0,11.9,9.7,21.6,21.6,21.6
	C252.7,53.9,262.3,44.2,262.3,32.3z"/>
<circle class="st0" cx="240.8" cy="32.3" r="12.1"/>
</svg>
