<?xml version="1.0" encoding="utf-8"?>
<!-- Generator: Adobe Illustrator 19.2.0, SVG Export Plug-In . SVG Version: 6.00 Build 0)  -->
<svg version="1.1" id="Lager_1" xmlns="http://www.w3.org/2000/svg" xmlns:xlink="http://www.w3.org/1999/xlink" x="0px" y="0px"
	 width="89.7px" height="89.7px" viewBox="0 0 89.7 89.7" style="enable-background:new 0 0 89.7 89.7;" xml:space="preserve">
<style type="text/css">
	.st0{fill:#F96332;}
</style>
<path class="st0" d="M44.9,0C20.1,0,0,20.1,0,44.9s20.1,44.9,44.9,44.9c24.8,0,44.9-20.1,44.9-44.9S69.6,0,44.9,0z M40.2,83
	c-8.5-1-16.4-4.8-22.5-11C10.4,64.8,6.4,55.1,6.4,44.9c0-9.2,3.2-18,9.2-24.9c0.2,1.8,0.5,3.8,0.4,5.2c-0.4,5.1-0.9,8.3,2.1,12.7
	c1.2,1.7,1.5,4.1,2,6.1c0.6,1.9,2.8,2.9,4.3,4.1c3.1,2.4,6.1,5.1,9.3,7.2c2.2,1.4,3.5,2.1,2.9,4.7c-0.5,2.1-0.7,3.4-1.8,5.3
	c-0.3,0.6,1.3,4.3,1.8,4.8c1.6,1.6,3.2,3.1,5,4.6C44.5,76.9,41.5,79.8,40.2,83z M72.1,72.1c-5.5,5.5-12.4,9.2-20,10.6
	c1.1-2.6,3-5,4.7-6.3c1.5-1.2,3.4-3.5,4.2-5.3c0.8-1.8,1.9-3.4,2.9-5c1.5-2.4-3.8-5.9-5.5-6.6c-3.9-1.7-6.8-3.9-10.2-6.3
	c-2.4-1.7-7.4,0.9-10.1-0.3c-3.8-1.6-6.9-4.5-10.2-7c-3.4-2.5-3.2-5.5-3.2-9.3c2.6,0.1,6.4-0.7,8.2,1.4c0.6,0.7,2.5,3.7,3.7,2.6
	c1-0.9-0.8-4.4-1.1-5.2c-1.1-2.5,2.5-3.5,4.3-5.2c2.4-2.2,7.4-5.7,7-7.3c-0.4-1.6-5.1-6.1-7.8-5.4c-0.4,0.1-4,3.9-4.7,4.5
	c0-1.2,0-2.5,0.1-3.7c0-0.8-1.5-1.6-1.4-2.1c0.2-1.3,3.7-3.6,4.6-4.6C37,11,34.9,9.2,34.3,9.5c-1.5,0.6-3.3,1.1-4.8,1.7
	c0-0.5-0.1-1-0.1-1.5c3.1-1.4,6.4-2.3,9.8-2.8l3,1.2l2.1,2.5l2.1,2.2l1.9,0.6l3-2.8l-0.8-2V6.8c5.9,0.9,11.4,3,16.3,6.4
	c-0.9,0.1-1.8,0.2-2.9,0.3c-0.4-0.3-1-0.4-1.5-0.6c1.4,3,2.9,6,4.4,9c1.6,3.2,5.1,6.6,5.8,10c0.7,4,0.2,7.6,0.6,12.3
	c0.4,4.5,5.1,9.6,5.1,9.6s2.2,0.7,4,0.5C80.5,61,77,67.1,72.1,72.1z"/>
</svg>
