<?xml version="1.0" encoding="utf-8"?>
<!-- Generator: Adobe Illustrator 19.2.0, SVG Export Plug-In . SVG Version: 6.00 Build 0)  -->
<svg version="1.1" id="Layer_1" xmlns="http://www.w3.org/2000/svg" xmlns:xlink="http://www.w3.org/1999/xlink" x="0px" y="0px"
	 width="16px" height="16px" viewBox="0 0 16 16" style="enable-background:new 0 0 16 16;" xml:space="preserve">
<path d="M16,16c0,0,0-1.1-0.1-1.7c-0.1-0.5-0.7-1.1-3.4-2c-2.6-1-2.5-0.5-2.5-2.3c0-1.2,0.6-0.5,1-2.7c0.1-0.9,0.3-0.3,0.6-1.7
	c0.2-0.7-0.1-0.8-0.1-1.1c0-0.3,0.1-0.7,0.1-1.4C11.7,2.3,10.9,0,8,0S4.3,2.3,4.4,3.2c0.1,0.7,0.1,1,0.1,1.4c0,0.3-0.2,0.4-0.1,1.1
	C4.7,7,4.8,6.5,5,7.3c0.4,2.2,1,1.5,1,2.7c0,1.8,0.2,1.3-2.5,2.3c-2.7,1-3.3,1.6-3.4,2C0,14.9,0,16,0,16h8H16z"/>
</svg>
